<svg width="200" height="200" viewBox="0 0 200 200" fill="none" xmlns="http://www.w3.org/2000/svg">
  <!-- Background -->
  <circle cx="100" cy="100" r="100" fill="#16a34a"/>
  
  <!-- Decorative elements -->
  <circle cx="50" cy="50" r="20" fill="#ffffff" opacity="0.2"/>
  <circle cx="150" cy="150" r="15" fill="#ffffff" opacity="0.2"/>
  <circle cx="150" cy="50" r="10" fill="#ffffff" opacity="0.2"/>
  
  <!-- Team representation - multiple people -->
  <circle cx="80" cy="70" r="18" fill="#ffffff"/>
  <circle cx="120" cy="70" r="18" fill="#ffffff"/>
  <circle cx="100" cy="90" r="18" fill="#ffffff"/>
  
  <!-- Bodies -->
  <path d="M55 110 Q80 140 105 110" fill="#ffffff"/>
  <path d="M95 110 Q120 140 145 110" fill="#ffffff"/>
  <path d="M75 110 Q100 140 125 110" fill="#ffffff"/>
  
  <!-- Connection lines -->
  <line x1="80" y1="88" x2="100" y2="108" stroke="#16a34a" stroke-width="2"/>
  <line x1="120" y1="88" x2="100" y2="108" stroke="#16a34a" stroke-width="2"/>
  
  <!-- Team indicator -->
  <text x="100" y="185" text-anchor="middle" font-family="Arial, sans-serif" font-size="14" font-weight="bold" fill="#ffffff">TEAM</text>
  
  <!-- Collaboration symbol -->
  <g transform="translate(100, 130)">
    <circle cx="0" cy="0" r="8" fill="#fbbf24"/>
    <circle cx="-12" cy="0" r="6" fill="#fbbf24"/>
    <circle cx="12" cy="0" r="6" fill="#fbbf24"/>
    <line x1="-6" y1="0" x2="6" y2="0" stroke="#ffffff" stroke-width="2"/>
  </g>
</svg> 