<?xml version="1.0" encoding="UTF-8"?>
<svg version="1.1" xmlns="http://www.w3.org/2000/svg" width="1024" height="1024">
<path d="M0 0 C1.13727089 -0.00226556 2.27454177 -0.00453111 3.44627541 -0.00686532 C7.2302413 -0.01315953 11.01417096 -0.0123789 14.79814148 -0.0115509 C17.52265558 -0.01400407 20.24716719 -0.01792071 22.97167969 -0.02172852 C29.59033055 -0.03000542 36.2089725 -0.03278206 42.82762811 -0.03334089 C48.21619414 -0.03381772 53.60475726 -0.03588074 58.99332237 -0.03904152 C74.31139759 -0.04784209 89.62946583 -0.05246214 104.9475436 -0.05171105 C105.77190301 -0.05167109 106.59626242 -0.05163113 107.44560242 -0.05158997 C108.27098321 -0.05154909 109.096364 -0.0515082 109.94675633 -0.05146609 C123.29751691 -0.05106038 136.64824919 -0.06061245 149.9990016 -0.07472833 C163.74718895 -0.08914818 177.49536254 -0.09599536 191.24355763 -0.09513456 C198.94593609 -0.09480439 206.64828492 -0.09747141 214.35065651 -0.10831261 C220.91395568 -0.11749204 227.47721182 -0.11953283 234.04051469 -0.11280318 C237.37897955 -0.10957425 240.71729602 -0.11046914 244.05576324 -0.11815643 C282.94788213 -0.20183108 282.94788213 -0.20183108 301.32035828 4.25871277 C302.21448425 4.47044128 303.10861023 4.6821698 304.02983093 4.90031433 C329.44938451 11.26079386 351.24634382 24.22216448 370.19535828 42.13371277 C371.00617859 42.88007996 371.8169989 43.62644714 372.65238953 44.39543152 C384.34004214 55.53091157 392.80083013 68.88697465 400.19535828 83.13371277 C400.8991864 84.47756042 400.8991864 84.47756042 401.61723328 85.84855652 C412.3538282 107.91435063 418.24757006 134.03622675 418.39848328 158.55168152 C418.40554291 159.32287827 418.41260254 160.09407501 418.4198761 160.88864136 C418.53719914 177.48276681 418.59554335 193.81652029 415.19535828 210.13371277 C415.0019989 211.08278503 414.80863953 212.0318573 414.60942078 213.00968933 C411.43496349 228.09326028 406.58403457 242.12145715 400.19535828 256.13371277 C399.68851501 257.24697937 399.68851501 257.24697937 399.1714325 258.38273621 C390.55197735 277.01312805 379.17091425 293.8129199 365.25395203 308.88761902 C363.46156866 310.84325552 361.76495884 312.84415535 360.07035828 314.88371277 C355.41825785 320.2347203 350.11636252 324.96131726 344.91410828 329.76652527 C344.30567078 330.33145691 343.69723328 330.89638855 343.07035828 331.47843933 C341.19535828 333.13371277 341.19535828 333.13371277 339.13285828 334.68742371 C337.30284389 336.08262813 335.68507904 337.37953588 334.19535828 339.13371277 C333.85912619 344.19736799 336.62149274 347.97027045 339.32035828 352.07121277 C339.7577533 352.75304626 340.19514832 353.43487976 340.64579773 354.13737488 C342.15144782 356.47670853 343.67281869 358.80534013 345.19535828 361.13371277 C346.35327802 362.9173283 347.51081474 364.70119254 348.66801453 366.48527527 C351.8423197 371.37022052 355.03045253 376.24600007 358.22221375 381.11955261 C361.46879104 386.07899869 364.70724228 391.04373952 367.94535828 396.00871277 C368.57256775 396.97019226 369.19977722 397.93167175 369.84599304 398.92228699 C373.95761699 405.22782202 378.05610864 411.5416615 382.14042664 417.86491394 C384.50967581 421.5321186 386.88505949 425.19516353 389.26957703 428.85246277 C394.96031008 437.58246624 400.61150336 446.33488765 406.19535828 455.13371277 C413.97118893 467.38526684 421.88574061 479.54438651 429.82817078 491.68840027 C430.42299255 492.59960632 431.01781433 493.51081238 431.63066101 494.44963074 C432.77153752 496.19726851 433.91418855 497.94374956 435.05888367 499.68888855 C435.57184998 500.47505554 436.08481628 501.26122253 436.61332703 502.07121277 C437.0647406 502.76086121 437.51615417 503.45050964 437.98124695 504.16105652 C441.46291126 509.8179734 442.1206926 514.50871277 441.19535828 521.13371277 C437.86013321 526.29793223 432.93943215 527.73689321 427.19535828 529.13371277 C423.57378752 529.53190908 419.99248599 529.55534131 416.35160828 529.53215027 C415.34247375 529.53502045 414.33333923 529.53789063 413.29362488 529.54084778 C411.17248469 529.54287779 409.05132532 529.53742283 406.93022156 529.52482605 C403.70436798 529.50875765 400.47976716 529.5247116 397.25395203 529.54386902 C395.18233471 529.5418864 393.11071816 529.53804234 391.03910828 529.53215027 C390.08572571 529.53822296 389.13234314 529.54429565 388.15007019 529.55055237 C378.17317856 529.44701692 371.03912092 527.02357826 363.78910828 520.08683777 C359.03592569 514.6750817 355.36432345 508.59472293 351.62065125 502.46037292 C349.2523675 498.59436675 346.81158389 494.7744138 344.38285828 490.94621277 C341.07415346 485.71165948 337.77958421 480.46862175 334.50004578 475.21574402 C333.25282039 473.22995987 332.0054276 471.24428085 330.75785828 469.25871277 C330.17866638 468.32518982 329.59947449 467.39166687 329.00273132 466.42985535 C325.37404492 460.67198771 321.9082145 455.3465032 315.82035828 451.94621277 C315.2969989 451.64328308 314.77363953 451.34035339 314.23442078 451.02824402 C307.68308984 448.15419271 301.77104564 447.84193989 294.70452881 447.85955811 C293.66036393 447.85432143 292.61619905 447.84908475 291.54039282 447.84368938 C288.04781956 447.82870949 284.55539307 447.82798465 281.06278992 447.82731628 C278.55572768 447.81969324 276.04866777 447.81126549 273.54161072 447.80209351 C266.73331009 447.78015071 259.92506018 447.77132713 253.11672902 447.76626706 C248.85896738 447.76300363 244.60121473 447.7564771 240.34345818 447.74926567 C228.53681385 447.72970246 216.73017785 447.71329765 204.92351627 447.71038914 C204.16861102 447.71020157 203.41370577 447.710014 202.6359246 447.70982074 C201.1057653 447.70945451 199.575606 447.70909081 198.0454467 447.70872963 C197.28595024 447.70854682 196.52645377 447.70836401 195.74394226 447.70817566 C194.98350974 447.70799511 194.22307722 447.70781456 193.43960129 447.70762854 C181.13527695 447.70409168 168.83112814 447.67709868 156.5268646 447.63967777 C143.8704175 447.60149651 131.21405724 447.58223093 118.55755132 447.58192962 C111.46109125 447.58134712 104.36484039 447.57298992 97.26843452 447.54393196 C90.58621486 447.51669458 83.90447702 447.51559625 77.22219849 447.5315876 C74.77942947 447.53339521 72.33663625 447.52677418 69.89391899 447.51076889 C41.63278129 447.33699467 24.58183661 456.60230028 2.19535828 473.13371277 C0.62529274 474.28769469 -0.94501914 475.44134151 -2.51557922 476.59465027 C-5.67891564 478.91979578 -8.83879399 481.24953412 -11.99604797 483.58293152 C-15.24952166 485.9873263 -18.50752699 488.38537316 -21.76948547 490.77824402 C-28.70950386 495.87253475 -35.63650411 500.96952851 -42.42964172 506.25871277 C-73.73881927 530.41949391 -73.73881927 530.41949391 -90.80464172 529.13371277 C-97.25649042 527.73544522 -102.42329094 524.54412373 -106.21479797 519.11418152 C-112.89776812 507.36540309 -112.0998909 492.64193571 -112.05860901 479.50671387 C-112.06091921 477.88284913 -112.06409946 476.25898545 -112.0680635 474.63512391 C-112.07634374 470.21537735 -112.0723173 465.79571814 -112.06609106 461.37597144 C-112.06153941 456.59257099 -112.06856383 451.80918489 -112.0740509 447.02578735 C-112.08291876 437.67045908 -112.08103425 428.31516299 -112.07522562 418.95983348 C-112.0706975 411.34975761 -112.0701012 403.73969071 -112.07227325 396.12961388 C-112.07257972 395.04392835 -112.07288619 393.95824283 -112.07320194 392.83965775 C-112.07384144 390.63361738 -112.07448986 388.42757702 -112.07514712 386.22153666 C-112.08084313 365.55994497 -112.07430468 344.89837105 -112.06354639 324.23678228 C-112.05461787 306.54234199 -112.05615858 288.84792797 -112.06538391 271.15348816 C-112.07611035 250.57045837 -112.08028724 229.98744416 -112.07415938 209.40441197 C-112.07352234 207.20523815 -112.0728936 205.00606432 -112.07227325 202.80689049 C-112.07181043 201.18415991 -112.07181043 201.18415991 -112.07133825 199.52864689 C-112.06961795 191.93810362 -112.07251215 184.34757031 -112.07723236 176.75702858 C-112.08286791 167.49138803 -112.08126917 158.22578133 -112.07067087 148.96014462 C-112.06544896 144.24069776 -112.06329724 139.52130713 -112.06996918 134.80186081 C-112.12130773 95.06138919 -110.33704759 59.3988886 -81.61714172 28.50871277 C-59.24994446 7.3784112 -30.01902607 -0.04459587 0 0 Z M-47.55854797 71.04777527 C-53.8669889 78.98471097 -56.93118932 87.2846043 -56.92768955 97.40244007 C-56.9296806 98.67338451 -56.93167165 99.94432895 -56.93372303 101.25378686 C-56.93087016 102.66182652 -56.92792456 104.06986599 -56.92489624 105.47790527 C-56.92533231 106.97539847 -56.92620787 108.47289159 -56.92748541 109.9703843 C-56.92972336 114.08646702 -56.92571862 118.20252375 -56.92070735 122.31860316 C-56.91639302 126.75686621 -56.91784997 131.19512777 -56.91860962 135.63339233 C-56.91913423 143.3233608 -56.91599398 151.01332079 -56.91037178 158.70328712 C-56.90224829 169.82171815 -56.89964069 180.94014508 -56.89838379 192.05857875 C-56.89619461 210.09705348 -56.88953814 228.13552369 -56.88008118 246.17399597 C-56.8709036 263.69775876 -56.86382446 281.22152033 -56.85957336 298.74528503 C-56.85931064 299.82526382 -56.85904792 300.9052426 -56.85877723 302.01794801 C-56.8574722 307.43582862 -56.85620849 312.85370925 -56.85496533 318.27158988 C-56.84459689 363.22563397 -56.8269822 408.17967314 -56.80464172 453.13371277 C-53.20876253 454.12665792 -53.20876253 454.12665792 -49.76264954 453.1525116 C-49.10103821 452.6371283 -48.43942688 452.121745 -47.75776672 451.59074402 C-47.00414856 451.0175946 -46.2505304 450.44444519 -45.47407532 449.85392761 C-44.67566223 449.22438171 -43.87724915 448.59483582 -43.05464172 447.94621277 C-41.34487319 446.64129429 -39.63391257 445.33793643 -37.92182922 444.03605652 C-36.63357239 443.04774841 -36.63357239 443.04774841 -35.31929016 442.03947449 C-31.66825423 439.27248551 -27.93485887 436.63173238 -24.17964172 434.00871277 C-19.96832792 431.06705092 -15.76794645 428.11940887 -11.63276672 425.07121277 C6.23646025 411.98236805 25.08899945 402.62424082 46.75785828 397.82121277 C47.46426453 397.66153015 48.17067078 397.50184753 48.89848328 397.33732605 C64.08076011 394.25385196 80.08033314 394.96941726 95.49223328 394.9283905 C97.79998441 394.91879162 100.10773386 394.90878042 102.41548157 394.89839172 C108.63333317 394.87155416 114.85119219 394.85043125 121.06906891 394.83038974 C127.58464889 394.80839841 134.10020653 394.78107454 140.61576843 394.7543335 C151.53649431 394.71022344 162.45722783 394.66935915 173.37797546 394.63102722 C184.61821895 394.59156485 195.85845225 394.55011356 207.09867859 394.50602722 C207.79343198 394.50330295 208.48818537 394.50057868 209.20399189 394.49777185 C212.68993454 394.48409061 216.17587704 394.47037069 219.66181946 394.45663154 C248.50631085 394.34299665 277.35082515 394.23618573 306.19535828 394.13371277 C306.4298706 388.48274328 304.94432726 385.45077963 301.77738953 380.89933777 C301.09600166 379.88223724 301.09600166 379.88223724 300.40084839 378.84458923 C298.94935962 376.68196151 297.47993349 374.53236851 296.00785828 372.38371277 C294.08979602 369.56086794 292.17988492 366.73269668 290.27738953 363.89933777 C289.59383392 362.88190491 289.59383392 362.88190491 288.89646912 361.84391785 C282.74798079 352.58564415 277.11689393 343.21801806 278.58598328 331.76261902 C280.09560842 325.24994134 283.19114288 319.58190423 288.19535828 315.13371277 C288.19535828 314.47371277 288.19535828 313.81371277 288.19535828 313.13371277 C289.18535828 312.80371277 290.17535828 312.47371277 291.19535828 312.13371277 C292.89739847 310.50318687 294.55882297 308.82997564 296.19535828 307.13371277 C298.1236987 305.330382 300.05773065 303.53799184 302.00785828 301.75871277 C302.53556824 301.2753949 303.0632782 300.79207703 303.60697937 300.29411316 C306.47499715 297.67508868 309.37165036 295.09953463 312.32035828 292.57121277 C342.07681701 266.56505152 361.17767692 228.03623812 365.0320282 188.71574402 C365.41290079 182.69465509 365.44022701 176.66468877 365.44535828 170.63371277 C365.44603302 169.92028717 365.44670776 169.20686157 365.44740295 168.47181702 C365.43126224 157.72436446 364.9276958 147.58217144 362.19535828 137.13371277 C362.01843445 136.43826355 361.84151062 135.74281433 361.65922546 135.02629089 C356.61069398 115.4774004 348.23392281 97.92954427 334.19535828 83.13371277 C333.53535828 83.13371277 332.87535828 83.13371277 332.19535828 83.13371277 C332.19535828 82.47371277 332.19535828 81.81371277 332.19535828 81.13371277 C307.70309331 58.57063305 277.8545432 55.81087829 246.05197477 55.87226343 C242.53736847 55.87683854 239.02278109 55.86977961 235.50817871 55.86430359 C228.64623992 55.85546294 221.78434516 55.85730715 214.92240472 55.86312887 C209.34363538 55.86766429 203.76487829 55.86825019 198.18610764 55.86608124 C197.3890833 55.86577477 196.59205897 55.86546831 195.77088239 55.86515255 C194.15131125 55.86451305 192.5317401 55.86386462 190.91216896 55.86320737 C175.76804849 55.85752028 160.62395234 55.86403758 145.47983585 55.8748081 C132.50153432 55.8837525 119.52326855 55.88218112 106.54496765 55.87297058 C91.44198642 55.86225708 76.3390264 55.8580586 61.2360419 55.86419511 C59.62459938 55.86483216 58.01315685 55.8654609 56.40171432 55.86608124 C55.60901338 55.86638979 54.81631244 55.86669834 53.99959026 55.86701624 C48.42813375 55.86873917 42.85669077 55.86583699 37.28523636 55.86112213 C30.49517082 55.85550174 23.7051515 55.85705449 16.91509123 55.86768362 C13.45455997 55.87292317 9.99410567 55.87502636 6.53357506 55.86838531 C2.77623863 55.86290937 -0.98088221 55.869789 -4.73820496 55.87974548 C-6.36486755 55.87305332 -6.36486755 55.87305332 -8.02439201 55.86622596 C-23.15889665 55.94385993 -37.04035536 59.56912409 -47.55854797 71.04777527 Z " fill="#F7F7F7" transform="translate(343.8046417236328,229.8662872314453)"/>
<path d="M0 0 C7.02058938 3.15854737 12.43558718 9.11439043 17.88671875 14.3984375 C32.3770577 27.99362038 51.68501117 38.28370462 70.84765625 43.421875 C72.43320312 43.86853516 72.43320312 43.86853516 74.05078125 44.32421875 C98.75484761 50.1259313 127.76702703 47.98992867 150.84765625 37.421875 C151.46560059 37.14359863 152.08354492 36.86532227 152.72021484 36.57861328 C166.9114503 30.11725047 178.70396628 21.71619515 190.015625 11.046875 C197.71341321 3.91182165 203.15099187 -1.07786636 213.91796875 -0.9921875 C219.82426782 -0.15743056 224.03098909 3.32135359 227.84765625 7.734375 C230.12811652 13.86311197 230.59026322 19.35436729 227.90625 25.40234375 C212.64044243 54.52567406 175.17892613 75.61289699 144.625 85.359375 C119.79362033 92.344003 91.78566072 93.37683257 66.84765625 86.421875 C66.15220703 86.23463867 65.45675781 86.04740234 64.74023438 85.85449219 C33.45292127 77.28526121 -4.22760004 57.55100716 -21.71484375 28.984375 C-25.04335425 23.10997827 -25.89619832 18.127043 -25.15234375 11.421875 C-20.13072731 1.18550302 -11.00347436 -2.95556117 0 0 Z " fill="#F7F7F7" transform="translate(386.15234375,484.578125)"/>
<path d="M0 0 C9.15845993 5.71591826 15.22381006 13.33705032 17.84375 23.9765625 C19.42946156 34.55946357 16.85651053 43.9879017 11.12109375 52.98046875 C5.08923125 60.51108324 -3.23635142 65.23778696 -12.796875 66.375 C-23.24761434 66.67014283 -31.75129735 63.64919903 -39.9375 57.21484375 C-43.94191581 53.25249114 -47.24776451 48.19269834 -48.33203125 42.62890625 C-48.48542969 41.88511719 -48.63882813 41.14132812 -48.796875 40.375 C-49.456875 40.045 -50.116875 39.715 -50.796875 39.375 C-50.62399351 26.99039855 -49.41810903 16.05221699 -40.796875 6.375 C-38.4296875 4.42578125 -38.4296875 4.42578125 -35.921875 2.6875 C-35.09945312 2.10613281 -34.27703125 1.52476562 -33.4296875 0.92578125 C-24.15882842 -4.53494732 -9.72023889 -4.76093334 0 0 Z " fill="#F7F7F7" transform="translate(580.796875,377.625)"/>
<path d="M0 0 C2.30078125 1.39453125 2.30078125 1.39453125 4.375 2.875 C5.02855469 3.33261719 5.68210937 3.79023438 6.35546875 4.26171875 C13.95289682 10.17442929 17.83315409 18.20039688 19.125 27.625 C19.946108 37.78241003 16.86275617 47.05111643 10.65625 55.10546875 C4.07581707 62.2927039 -4.39151317 66.43153866 -14.15625 66.94140625 C-24.01212883 66.67629559 -32.4778169 63.47782413 -39.375 56.3125 C-47.25889616 46.44384676 -48.9886417 36.08464373 -47.625 23.875 C-46.02870721 17.36246505 -42.87169765 12.01573926 -38.625 6.875 C-37.965 6.875 -37.305 6.875 -36.625 6.875 C-36.625 6.215 -36.625 5.555 -36.625 4.875 C-35.0859375 3.65625 -35.0859375 3.65625 -33 2.375 C-32.32710938 1.9521875 -31.65421875 1.529375 -30.9609375 1.09375 C-22.05942098 -3.55051949 -9.22036511 -4.41159008 0 0 Z " fill="#F7F7F7" transform="translate(436.625,377.125)"/>
<path d="M0 0 C1.65 0 3.3 0 5 0 C5 0.33 5 0.66 5 1 C3.35 1 1.7 1 0 1 C0 0.67 0 0.34 0 0 Z " fill="#F3F4F4" transform="translate(584,678)"/>
<path d="M0 0 C2 1 2 1 2 1 Z " fill="#F5F6F6" transform="translate(389,679)"/>
<path d="M0 0 C2 1 2 1 2 1 Z " fill="#F4F5F5" transform="translate(635,678)"/>
<path d="M0 0 C2 1 2 1 2 1 Z " fill="#F5F7F4" transform="translate(632,678)"/>
<path d="M0 0 C2 1 2 1 2 1 Z " fill="#F4F5F5" transform="translate(627,678)"/>
<path d="M0 0 C2 1 2 1 2 1 Z " fill="#F4F5F5" transform="translate(624,678)"/>
<path d="M0 0 C2 1 2 1 2 1 Z " fill="#F4F4F4" transform="translate(619,678)"/>
<path d="M0 0 C2 1 2 1 2 1 Z " fill="#F4F4F5" transform="translate(616,678)"/>
<path d="M0 0 C2 1 2 1 2 1 Z " fill="#F3F4F4" transform="translate(611,678)"/>
<path d="M0 0 C2 1 2 1 2 1 Z " fill="#F4F5F5" transform="translate(608,678)"/>
<path d="M0 0 C2 1 2 1 2 1 Z " fill="#F3F3F4" transform="translate(603,678)"/>
<path d="M0 0 C2 1 2 1 2 1 Z " fill="#F4F4F5" transform="translate(600,678)"/>
<path d="M0 0 C2 1 2 1 2 1 Z " fill="#F4F4F4" transform="translate(579,678)"/>
<path d="M0 0 C2 1 2 1 2 1 Z " fill="#F4F5F4" transform="translate(576,678)"/>
<path d="M0 0 C2 1 2 1 2 1 Z " fill="#F3F4F4" transform="translate(571,678)"/>
<path d="M0 0 C2 1 2 1 2 1 Z " fill="#F4F3F4" transform="translate(563,678)"/>
<path d="M0 0 C2 1 2 1 2 1 Z " fill="#F4F6F4" transform="translate(560,678)"/>
<path d="M0 0 C2 1 2 1 2 1 Z " fill="#F3F4F5" transform="translate(555,678)"/>
<path d="M0 0 C2 1 2 1 2 1 Z " fill="#F3F4F4" transform="translate(547,678)"/>
<path d="M0 0 C2 1 2 1 2 1 Z " fill="#F4F5F3" transform="translate(528,678)"/>
<path d="M0 0 C2 1 2 1 2 1 Z " fill="#F2F2F2" transform="translate(515,678)"/>
<path d="M0 0 C2 1 2 1 2 1 Z " fill="#F3F4F4" transform="translate(507,678)"/>
<path d="M0 0 C2 1 2 1 2 1 Z " fill="#F3F5F4" transform="translate(496,678)"/>
<path d="M0 0 C2 1 2 1 2 1 Z " fill="#F2F4F4" transform="translate(483,678)"/>
<path d="M0 0 C2 1 2 1 2 1 Z " fill="#F3F5F4" transform="translate(475,678)"/>
<path d="M0 0 C2 1 2 1 2 1 Z " fill="#F3F3F4" transform="translate(459,678)"/>
<path d="M0 0 C2 1 2 1 2 1 Z " fill="#F3F5F4" transform="translate(435,678)"/>
<path d="" fill="#FAF9F9" transform="translate(0,0)"/>
<path d="" fill="#F8F9F9" transform="translate(0,0)"/>
<path d="M0 0 C2 1 2 1 2 1 Z " fill="#F7F6F5" transform="translate(332,287)"/>
<path d="" fill="#565757" transform="translate(0,0)"/>
<path d="" fill="#F2F2F2" transform="translate(0,0)"/>
<path d="" fill="#EBEAEA" transform="translate(0,0)"/>
<path d="" fill="#F3F3F4" transform="translate(0,0)"/>
<path d="" fill="#F4F6F5" transform="translate(0,0)"/>
<path d="" fill="#F2F4F5" transform="translate(0,0)"/>
<path d="" fill="#F4F6F5" transform="translate(0,0)"/>
<path d="" fill="#F3F5F5" transform="translate(0,0)"/>
<path d="" fill="#F6F6F6" transform="translate(0,0)"/>
<path d="" fill="#F6F6F6" transform="translate(0,0)"/>
<path d="" fill="#F3F4F4" transform="translate(0,0)"/>
<path d="" fill="#F5F5F4" transform="translate(0,0)"/>
<path d="" fill="#F5F5F5" transform="translate(0,0)"/>
<path d="" fill="#F5F6F5" transform="translate(0,0)"/>
<path d="" fill="#F5F6F5" transform="translate(0,0)"/>
<path d="" fill="#F3F4F6" transform="translate(0,0)"/>
<path d="" fill="#F4F4F4" transform="translate(0,0)"/>
<path d="" fill="#F5F5F5" transform="translate(0,0)"/>
<path d="" fill="#F4F5F5" transform="translate(0,0)"/>
<path d="" fill="#F5F5F4" transform="translate(0,0)"/>
<path d="" fill="#F3F4F4" transform="translate(0,0)"/>
<path d="" fill="#F5F5F5" transform="translate(0,0)"/>
<path d="" fill="#F5F4F4" transform="translate(0,0)"/>
<path d="" fill="#F3F5F5" transform="translate(0,0)"/>
<path d="" fill="#F4F4F7" transform="translate(0,0)"/>
<path d="" fill="#F4F5F4" transform="translate(0,0)"/>
<path d="" fill="#F3F5F5" transform="translate(0,0)"/>
<path d="" fill="#F4F6F5" transform="translate(0,0)"/>
<path d="" fill="#F5F5F6" transform="translate(0,0)"/>
<path d="" fill="#F3F4F5" transform="translate(0,0)"/>
<path d="" fill="#F8F9F8" transform="translate(0,0)"/>
<path d="" fill="#FAFAF8" transform="translate(0,0)"/>
<path d="" fill="#FBFAF9" transform="translate(0,0)"/>
<path d="" fill="#FBF9F9" transform="translate(0,0)"/>
<path d="" fill="#F8FAFB" transform="translate(0,0)"/>
<path d="" fill="#F9F9F9" transform="translate(0,0)"/>
<path d="" fill="#F8F9FA" transform="translate(0,0)"/>
<path d="" fill="#F8F9F5" transform="translate(0,0)"/>
<path d="" fill="#FAF7F8" transform="translate(0,0)"/>
<path d="" fill="#F9F6F7" transform="translate(0,0)"/>
<path d="" fill="#F9F8FA" transform="translate(0,0)"/>
<path d="" fill="#F7F7F7" transform="translate(0,0)"/>
<path d="" fill="#F9FAF8" transform="translate(0,0)"/>
<path d="" fill="#F9F9F8" transform="translate(0,0)"/>
<path d="" fill="#F2F4F4" transform="translate(0,0)"/>
<path d="" fill="#FAF8F8" transform="translate(0,0)"/>
<path d="" fill="#F9FAF9" transform="translate(0,0)"/>
<path d="" fill="#F8F9F7" transform="translate(0,0)"/>
<path d="" fill="#F8F9F9" transform="translate(0,0)"/>
<path d="" fill="#FCF9F9" transform="translate(0,0)"/>
<path d="" fill="#F9FAFA" transform="translate(0,0)"/>
<path d="" fill="#F7F8F8" transform="translate(0,0)"/>
<path d="" fill="#F8F9F9" transform="translate(0,0)"/>
<path d="" fill="#F8FAF9" transform="translate(0,0)"/>
<path d="" fill="#FAFAF8" transform="translate(0,0)"/>
<path d="" fill="#F7F9F9" transform="translate(0,0)"/>
<path d="" fill="#F8F6F5" transform="translate(0,0)"/>
<path d="" fill="#F6F6F4" transform="translate(0,0)"/>
<path d="" fill="#F7F6F5" transform="translate(0,0)"/>
<path d="" fill="#F8F8F5" transform="translate(0,0)"/>
<path d="" fill="#F8F5F6" transform="translate(0,0)"/>
<path d="" fill="#F8F6F5" transform="translate(0,0)"/>
<path d="" fill="#F8F7F7" transform="translate(0,0)"/>
<path d="" fill="#F8F7F5" transform="translate(0,0)"/>
<path d="" fill="#F6F8F6" transform="translate(0,0)"/>
<path d="" fill="#F8F9F5" transform="translate(0,0)"/>
<path d="" fill="#F7F8F5" transform="translate(0,0)"/>
<path d="" fill="#F7F7F6" transform="translate(0,0)"/>
<path d="" fill="#F7F6F5" transform="translate(0,0)"/>
<path d="" fill="#F7F6F5" transform="translate(0,0)"/>
<path d="" fill="#F6F6F3" transform="translate(0,0)"/>
<path d="" fill="#F7F4F4" transform="translate(0,0)"/>
<path d="" fill="#F7F4F5" transform="translate(0,0)"/>
<path d="" fill="#F6F5F6" transform="translate(0,0)"/>
<path d="" fill="#F1F2F2" transform="translate(0,0)"/>
<path d="" fill="#F0F1F1" transform="translate(0,0)"/>
<path d="" fill="#EFF0EE" transform="translate(0,0)"/>
</svg>
